#!OML:ASF E:\emotionWalksFemale\Project 1\Capture day 1\Session 1\Female1.ASF
:FULLY-SPECIFIED
:DEGREES
338
root 8.77858 15.0647 41.8852 175.716 -1.15989 -178.195
lowerback 3.3745 0.242024 1.41751
upperback -5.82063 0.208435 0.622157
thorax -7.98419 -0.0729648 -0.146412
lowerneck -15.9305 -2.64984 -4.80096
upperneck 20.3878 -3.83217 3.97284
head 9.20835 -1.92451 1.64747
rclavicle 5.24916e-016 -3.5657e-015
rhumerus 34.3647 29.2728 -31.858
rradius 32.8691
rwrist -2.4488
rhand 3.874 -51.1416
rfingers 7.12502
rthumb 29.2954 -78.8542
lclavicle 5.24916e-016 -3.5657e-015
lhumerus 24.7413 -13.2399 52.6166
lradius 27.273
lwrist -19.8823
lhand 5.63451 -34.0347
lfingers 7.12502
lthumb 30.975 -6.62846
rfemur 0.619159 22.3837 29.0485
rtibia 26.8922
rfoot -25.6627 -34.075
rtoes 0.446434
lfemur -3.68806 -28.0094 -24.6302
ltibia 32.074
lfoot -29.7009 26.0046
ltoes -38.8674
339
root 8.7797 15.0659 41.8807 175.679 -1.18688 -178.299
lowerback 3.50144 0.242352 1.26634
upperback -5.87166 0.19711 0.590948
thorax -8.11429 -0.0718035 -0.0929958
lowerneck -15.8213 -2.66449 -4.7329
upperneck 20.3591 -3.84773 3.84977
head 9.17518 -1.94219 1.59272
rclavicle 3.74895e-015 2.3792e-015
rhumerus 34.223 29.3045 -31.9074
rradius 32.8184
rwrist -2.18722
rhand 4.31135 -51.7562
rfingers 7.12502
rthumb 29.7129 -79.3951
lclavicle 3.74895e-015 2.3792e-015
lhumerus 24.6534 -13.1101 52.8829
lradius 27.2682
lwrist -20.1703
lhand 5.5021 -34.1604
lfingers 7.12502
lthumb 30.8488 -6.73023
rfemur 0.6529 22.4334 28.9772
rtibia 26.9863
rfoot -25.8494 -34.2171
rtoes 0.806749
lfemur -3.63108 -27.7335 -24.7021
ltibia 31.9984
lfoot -29.5169 25.781
ltoes -39.2485
340
root 8.78108 15.068 41.8751 175.66 -1.21882 -178.491
lowerback 3.58518 0.261951 1.04166
upperback -5.921 0.201719 0.515493
thorax -8.21722 -0.059436 -0.0466631
lowerneck -15.6375 -2.67846 -4.71114
upperneck 20.2539 -3.8782 3.84866
head 9.10597 -1.95763 1.58647
rclavicle 2.83113e-015 -8.66577e-016
rhumerus 34.0823 29.383 -31.8193
rradius 32.8571
rwrist -2.00951
rhand 4.2283 -49.1739
rfingers 7.12502
rthumb 29.6336 -76.8269
lclavicle 2.83113e-015 -8.66577e-016
lhumerus 24.5295 -14.0491 51.8619
lradius 27.8617
lwrist -18.9744
lhand 5.59606 -34.0391
lfingers 7.12502
lthumb 30.9383 -6.62586
rfemur 0.663598 22.4278 28.799
rtibia 27.104
rfoot -26.0327 -34.2195
rtoes 0.579609
lfemur -3.57016 -27.4766 -24.8716
ltibia 31.9018
lfoot -29.4073 25.564
ltoes -39.3683
341
root 8.78101 15.065 41.8699 175.624 -1.29041 -178.63
lowerback 3.61404 0.253256 0.892409
upperback -5.90098 0.178798 0.460387
thorax -8.21288 -0.0616387 -0.0188976
lowerneck -15.5588 -2.65659 -4.66828
upperneck 20.0546 -3.8301 3.80204
head 9.01879 -1.93212 1.57078
rclavicle -8.96084e-016 4.17448e-015
rhumerus 34.0815 29.4405 -31.5823
rradius 32.9186
rwrist -1.93402
rhand 3.24937 -49.3305
rfingers 7.12502
rthumb 28.6988 -77.1456
lclavicle -8.96084e-016 4.17448e-015
lhumerus 24.7715 -13.8278 52.0225
lradius 27.6545
lwrist -19.3467
lhand 5.66995 -34.0667
lfingers 7.12502
lthumb 31.0088 -6.6669
rfemur 0.703987 22.3559 28.6581
rtibia 27.2086
rfoot -26.2334 -34.1129
rtoes 0.638684
lfemur -3.39406 -27.8375 -25.1527
ltibia 31.8116
lfoot -29.5986 25.6483
ltoes -38.7053
342
root 8.78068 15.0621 41.8672 175.633 -1.37484 -178.666
lowerback 3.59146 0.227138 0.853614
upperback -5.86159 0.142632 0.440108
thorax -8.15721 -0.0757543 -0.0150616
lowerneck -15.6487 -2.67356 -4.55672
upperneck 20.1235 -3.82249 3.55734
head 9.05157 -1.94445 1.46872
rclavicle -1.20513e-015 -5.2181e-016
rhumerus 34.1277 29.3915 -31.4427
rradius 32.8966
rwrist -1.72247
rhand 2.99215 -48.9633
rfingers 7.12502
rthumb 28.4531 -76.8198
lclavicle -1.20513e-015 -5.2181e-016
lhumerus 24.9332 -13.91 51.7447
lradius 27.7541
lwrist -19.2018
lhand 5.72524 -34.0203
lfingers 7.12502
lthumb 31.0615 -6.63055
rfemur 0.678291 22.2776 28.6095
rtibia 27.2794
rfoot -26.296 -33.9128
rtoes 1.10103
lfemur -3.32249 -28.1382 -25.2597
ltibia 31.7511
lfoot -29.7955 25.6464
ltoes -38.3738
343
root 8.78026 15.064 41.8651 175.695 -1.401 -178.62
lowerback 3.60056 0.236132 0.89972
upperback -5.89231 0.155126 0.430701
thorax -8.19561 -0.0742033 -0.0518083
lowerneck -15.711 -2.65652 -4.56016
upperneck 20.1818 -3.80148 3.57124
head 9.08249 -1.9332 1.47604
rclavicle -3.18055e-015 4.88265e-015
rhumerus 34.0161 29.3268 -31.4724
rradius 32.851
rwrist -1.26577
rhand 3.833 -49.8816
rfingers 7.12502
rthumb 29.2563 -77.601
lclavicle -3.18055e-015 4.88265e-015
lhumerus 25.0701 -14.2451 51.3646
lradius 27.8843
lwrist -18.8131
lhand 5.82198 -33.7697
lfingers 7.12502
lthumb 31.1537 -6.39765
rfemur 0.612332 22.2931 28.6537
rtibia 27.3101
rfoot -26.2441 -33.8729
rtoes 1.18802
lfemur -3.43603 -27.864 -25.0974
ltibia 31.7185
lfoot -29.5722 25.6668
ltoes -39.4775
